<svg width="25" height="22" viewBox="0 0 25 22" fill="none" xmlns="http://www.w3.org/2000/svg">
<g clip-path="url(#clip0_635_101)">
<path d="M2.2075 0.0247446C2.2175 0.0395913 2.2725 0.106402 2.325 0.170738C2.7075 0.621089 2.995 1.35353 3.15 2.2765C3.2525 2.88274 3.2575 3.07328 3.2575 5.38442V7.5372H2.2125C1.2575 7.5372 1.1475 7.53225 0.96 7.49513C0.665 7.43327 0.36 7.26748 0.155 7.05468C-0.00750001 6.88394 -0.0025 6.87404 0.0075 7.3912C0.02 7.81928 0.025 7.8663 0.0875 8.0989C0.1875 8.46759 0.325 8.74226 0.5325 8.98723C0.815 9.32376 1.1025 9.51181 1.5125 9.63801C1.6 9.66276 1.785 9.67265 2.44 9.6776L3.2575 9.68997V10.7614V11.8353L2.105 11.8279L0.9475 11.8205L0.7475 11.7413C0.51 11.6473 0.4025 11.578 0.17 11.3726L0 11.2217L0.01 11.6943C0.0225 12.1323 0.025 12.1818 0.0875 12.4045C0.305 13.1913 0.83 13.753 1.5225 13.9361C1.695 13.9832 1.7625 13.9856 2.485 13.9955L3.2575 14.0054V16.2225C3.2575 17.5612 3.25 18.5485 3.2375 18.7168C3.225 18.8702 3.185 19.1572 3.15 19.3577C2.9875 20.2807 2.695 20.976 2.275 21.4263L2.19 21.5179H6.4175C8.945 21.5179 10.835 21.508 11.1125 21.4956C11.6 21.4709 12.6875 21.3645 12.9325 21.3125C13.01 21.2977 13.155 21.2754 13.25 21.2605C13.4525 21.2308 13.7875 21.1616 14.27 21.0403C14.95 20.872 15.57 20.6617 16.1775 20.3945C16.3675 20.3103 16.9125 20.0357 17.0575 19.9491C17.135 19.9045 17.2275 19.8501 17.2625 19.8328C17.36 19.7808 17.5225 19.6769 17.76 19.5086C17.8775 19.4245 17.995 19.3428 18.02 19.3255C18.125 19.2562 18.4875 18.9568 18.6525 18.8059C19.28 18.2343 19.805 17.5983 20.2125 16.9179C20.27 16.8189 20.345 16.6952 20.3775 16.6432C20.46 16.5046 20.8 15.8118 20.8325 15.7079C20.8475 15.6608 20.8675 15.6114 20.8775 15.6015C20.9425 15.5173 21.3175 14.3494 21.3625 14.0945C21.3775 14.0129 21.385 14.0005 21.4475 13.9881C21.4875 13.9807 22.07 13.9807 22.7425 13.9856C24.0875 13.9955 24.0875 13.9955 24.385 14.1316C24.5525 14.2083 24.6025 14.243 24.7875 14.4088C25.03 14.624 25.0075 14.6587 24.9925 14.1193C24.9825 13.8025 24.97 13.607 24.9475 13.5279C24.8625 13.2235 24.8425 13.1592 24.7675 13.0057C24.5225 12.4762 24.1125 12.0976 23.5875 11.917L23.3825 11.8428L22.5475 11.8329L21.715 11.8205L21.725 11.531C21.735 11.1499 21.735 10.3952 21.7225 10.0067L21.7125 9.69492L22.8275 9.68997C23.7825 9.68503 23.96 9.68997 24.065 9.71719C24.38 9.8038 24.5925 9.92257 24.8525 10.1576L24.9975 10.2913V9.92505C24.9975 9.48954 24.975 9.29654 24.885 9.0095C24.7075 8.428 24.3575 7.99497 23.8575 7.72773C23.5325 7.55452 23.5125 7.54957 22.395 7.54215C21.74 7.5372 21.3975 7.5273 21.38 7.51245C21.365 7.49761 21.3525 7.47286 21.3525 7.45307C21.3525 7.43327 21.315 7.27738 21.265 7.10912C20.68 5.06274 19.5875 3.43702 17.99 2.23196C17.7725 2.06617 17.24 1.71727 17.025 1.5985C16.9425 1.55148 16.8525 1.502 16.83 1.48715C16.725 1.43024 16.1225 1.13825 15.9725 1.07639C15.8825 1.0368 15.765 0.987308 15.7125 0.967513C14.83 0.588921 13.35 0.230125 12.22 0.118774C12.035 0.101453 11.79 0.0742337 11.6775 0.0643359C11.1675 0.00742337 10.46 0 6.4425 0C3.0475 0 2.195 0.00742337 2.2075 0.0247446ZM10.475 1.09618C11.32 1.14567 11.84 1.21001 12.4475 1.356C14.3025 1.79151 15.6075 2.71201 16.555 4.25112C16.6425 4.39464 17.0125 5.14192 17.0675 5.29286C17.33 5.99314 17.4575 6.40884 17.57 6.95817C17.5975 7.09179 17.635 7.26996 17.6525 7.35409C17.67 7.43574 17.6775 7.51245 17.67 7.51988C17.6575 7.52977 15.1475 7.53472 12.0875 7.53225L6.525 7.5273L6.5175 4.34762C6.515 2.60065 6.5175 1.14815 6.525 1.12093L6.535 1.07391H8.3125C9.2875 1.07391 10.2625 1.08381 10.475 1.09618ZM17.9125 9.76421C17.93 9.87061 17.93 11.677 17.9125 11.766L17.8975 11.8329L12.21 11.8279L6.525 11.8205L6.52 10.7713C6.515 10.1948 6.52 9.71472 6.525 9.70482C6.5325 9.69245 8.955 9.68503 12.2175 9.68503H17.8975L17.9125 9.76421ZM17.6575 14.0129C17.67 14.05 17.61 14.3543 17.4875 14.8492C17.3475 15.406 17.1575 15.9677 16.965 16.3834C16.87 16.5962 16.6325 17.0564 16.575 17.143C16.5475 17.1826 16.4675 17.3088 16.3975 17.4202C15.9475 18.118 15.305 18.7539 14.5725 19.2241C14.305 19.3923 13.755 19.6794 13.6075 19.7239C13.5775 19.7313 13.545 19.7462 13.5325 19.7561C13.515 19.7709 13.2875 19.855 13.0225 19.9491C12.535 20.1198 11.6075 20.3054 10.8625 20.3821C10.38 20.4291 10.3025 20.4316 8.445 20.4316H6.5225V17.2222V14.0104L12.045 14.0005C15.0825 13.9955 17.585 13.9881 17.605 13.9832C17.6275 13.9807 17.65 13.9955 17.6575 14.0129Z" fill="#BE7412"/>
</g>
<defs>
<clipPath id="clip0_635_101">
<rect width="25" height="21.5278" fill="white"/>
</clipPath>
</defs>
</svg>
